# xmcd
#
# Track frame offsets: 
#        150
#        16779
#        28707
#        42863
#        57723
#
# Disc length: 935 seconds
#
# Revision: 2
# Processed by: cddbd v1.5.2PL0 Copyright (c) Steve Scherf et al.
# Submitted via: ExactAudioCopyFreeDBPlugin 1.0
#
DISCID=3903a505
DTITLE=Tercet Egzotyczny - Tercet Egzotyczny
DYEAR=2006
DGENRE=Latin
TTITLE0=Pamelo żegnaj
TTITLE1=O Izabella
TTITLE2=La Paloma Paloma
TTITLE3=Guantanamera
TTITLE4=Una Paloma Blanca
EXTD=YEAR: 2006
EXTT0=
EXTT1=
EXTT2=
EXTT3=
EXTT4=
PLAYORDER=
